<svg xmlns="http://www.w3.org/2000/svg" viewBox="0 0 24 24" width="100" height="100">
  <!-- Background rectangle with aqua color -->
  <rect width="100%" height="100%" fill="aqua"/>
  
  <!-- Paintbrush icon -->
  <path d="M12.7,2.3c-0.4-0.4-1-0.4-1.4,0L5.3,7.4c-0.4,0.4-0.4,1,0,1.4l4.2,4.2l5.4-5.4L12.7,2.3z M13.8,7.2L9.2,11.8L6.1,8.7l4.6-4.6L13.8,7.2z M16.6,10.5l-4.3,4.3l-0.4-0.4l4.3-4.3L16.6,10.5z M19.4,7.7l-2.5,2.5L13.8,7.2l2.5-2.5C16.4,3.7,17.1,3.7,17.5,4.2C17.9,4.7,17.9,5.4,17.5,5.8C17.1,6.3,16.4,6.3,16.0,6.0l2.5-2.5C19.4,4.8,19.4,5.5,19.4,6.0C19.4,6.5,19.4,7.1,19.4,7.7z M14.9,10.4l-4.3,4.3l-0.4-0.4l4.3-4.3L14.9,10.4z M6.2,18.7c-0.6-0.6-0.6-1.5,0-2.1l4.4-4.4c0.6-0.6,1.5-0.6,2.1,0c0.6,0.6,0.6,1.5,0,2.1l-4.4,4.4C7.7,19.3,6.8,19.3,6.2,18.7z"/>
</svg>
